<svg id="visual" viewBox="0 0 900 600" width="900" height="600" xmlns="http://www.w3.org/2000/svg" xmlns:xlink="http://www.w3.org/1999/xlink" version="1.1"><rect x="0" y="0" width="900" height="600" fill="#fff"></rect><defs><linearGradient id="grad1_0" x1="33.3%" y1="0%" x2="100%" y2="100%"><stop offset="20%" stop-color="#ffffff" stop-opacity="1"></stop><stop offset="80%" stop-color="#ffffff" stop-opacity="1"></stop></linearGradient></defs><defs><linearGradient id="grad2_0" x1="0%" y1="0%" x2="66.7%" y2="100%"><stop offset="20%" stop-color="#ffffff" stop-opacity="1"></stop><stop offset="80%" stop-color="#ffffff" stop-opacity="1"></stop></linearGradient></defs><g transform="translate(900, 0)"><path d="M0 351.5C-44 336.5 -88 321.5 -124.4 300.3C-160.7 279 -189.4 251.6 -224.9 224.9C-260.3 198.1 -302.5 171.9 -324.8 134.5C-347 97.2 -349.3 48.6 -351.5 0L0 0Z" fill="#0055ff"></path></g><g transform="translate(0, 600)"><path d="M0 -351.5C42.7 -337.2 85.4 -323 127.1 -306.7C168.7 -290.5 209.2 -272.4 244 -244C278.7 -215.5 307.8 -176.9 324.8 -134.5C341.8 -92.2 346.7 -46.1 351.5 0L0 0Z" fill="#0055ff"></path></g></svg>