<svg id="visual" viewBox="0 0 900 600" width="900" height="600" xmlns="http://www.w3.org/2000/svg" xmlns:xlink="http://www.w3.org/1999/xlink" version="1.1"><rect x="0" y="0" width="900" height="600" fill="#ffffff"></rect><path d="M622 600L632.5 575C643 550 664 500 648.2 450C632.3 400 579.7 350 590.2 300C600.7 250 674.3 200 696.2 150C718 100 688 50 673 25L658 0L900 0L900 25C900 50 900 100 900 150C900 200 900 250 900 300C900 350 900 400 900 450C900 500 900 550 900 575L900 600Z" fill="#0066FF" stroke-linecap="round" stroke-linejoin="miter"></path></svg>